<?xml version="1.0" encoding="utf-8"?>
<!-- Generated by Mocodo 4.3.2 -->
<svg width="344" height="102" viewBox="0 0 344 102" xmlns="http://www.w3.org/2000/svg">
<rect x="0" y="0" width="344" height="102" fill="#f7f7f7" stroke="none" stroke-width="0"/>

<!-- Association PLAYS -->
<g>
	<line x1="32" y1="51" x2="129" y2="51" stroke="#e08214" stroke-width="2"/>
	<line x1="231" y1="51" x2="129" y2="51" stroke="#e08214" stroke-width="2"/>
	<g>
		<path d="M157 9 a14 14 90 0 1 14 14 V34 h-84 V23 a14 14 90 0 1 14 -14" fill="#fdb863" stroke="#fdb863" stroke-width="0"/>
		<path d="M171 34 v45 a14 14 90 0 1 -14 14 H101 a14 14 90 0 1 -14 -14 V34 H84" fill="#fee0b6" stroke="#fee0b6" stroke-width="0"/>
		<rect x="87" y="9" width="84" height="84" fill="none" rx="14" stroke="#e08214" stroke-width="2"/>
		<line x1="87" y1="34" x2="171" y2="34" stroke="#e08214" stroke-width="1"/>
		<text x="110" y="26.75" fill="#000000" font-family="Verdana" font-size="12">PLAYS</text>
		<text x="94" y="51.8" fill="#000000" font-family="Verdana" font-size="12">rating</text>
		<text x="94" y="68.8" fill="#000000" font-family="Verdana" font-size="12">time_spent</text>
		<text x="94" y="85.8" fill="#000000" font-family="Verdana" font-size="12">added_at</text>
	</g>
	<text x="60" y="68" fill="#542788" font-family="Verdana" font-size="12">0,N</text>
	<text x="176" y="68" fill="#542788" font-family="Verdana" font-size="12">1,N</text>
</g>

<!-- Association LIKE -->
<g>
	<path d="M231 51 C262.33 17.67 289.67 17.67 313 51" fill="none" stroke="#e08214" stroke-width="2"/>
	<path d="M231 51 C262.33 84.33 289.67 84.33 313 51" fill="none" stroke="#e08214" stroke-width="2"/>
	<g>
		<path d="M321 26 a14 14 90 0 1 14 14 V51 h-44 V40 a14 14 90 0 1 14 -14" fill="#fdb863" stroke="#fdb863" stroke-width="0"/>
		<path d="M335 51 v11 a14 14 90 0 1 -14 14 H305 a14 14 90 0 1 -14 -14 V51 H44" fill="#fee0b6" stroke="#fee0b6" stroke-width="0"/>
		<rect x="291" y="26" width="44" height="50" fill="none" rx="14" stroke="#e08214" stroke-width="2"/>
		<line x1="291" y1="51" x2="335" y2="51" stroke="#e08214" stroke-width="1"/>
		<text x="299" y="43.75" fill="#000000" font-family="Verdana" font-size="12">LIKE</text>
	</g>
	<text x="264" y="47" fill="#542788" font-family="Verdana" font-size="12">0,N</text>
	<text x="264" y="64" fill="#542788" font-family="Verdana" font-size="12">0,N</text>
</g>

<!-- Entity GAME -->
<g>
	<g>
		<rect x="9" y="17" width="46" height="25" fill="#b2abd2" stroke="none" stroke-width="0" opacity="1"/>
		<rect x="9" y="42" width="46" height="43" fill="#d8daeb" stroke="none" stroke-width="0" opacity="1"/>
		<rect x="9" y="17" width="46" height="68" fill="none" stroke="#8073ac" stroke-width="2" opacity="1"/>
		<line x1="9" y1="42" x2="55" y2="42" stroke="#8073ac" stroke-width="1"/>
	</g>
	<text x="14" y="34.75" fill="#000000" font-family="Verdana" font-size="12">GAME</text>
	<text x="14" y="59.8" fill="#000000" font-family="Verdana" font-size="12">title</text>
	<line x1="14" y1="62" x2="38" y2="62" stroke="#000000" stroke-width="1"/>
	<text x="14" y="76.8" fill="#000000" font-family="Verdana" font-size="12">cover</text>
</g>

<!-- Entity PLAYER -->
<g>
	<g>
		<rect x="203" y="17" width="56" height="25" fill="#b2abd2" stroke="none" stroke-width="0" opacity="1"/>
		<rect x="203" y="42" width="56" height="43" fill="#d8daeb" stroke="none" stroke-width="0" opacity="1"/>
		<rect x="203" y="17" width="56" height="68" fill="none" stroke="#8073ac" stroke-width="2" opacity="1"/>
		<line x1="203" y1="42" x2="259" y2="42" stroke="#8073ac" stroke-width="1"/>
	</g>
	<text x="208" y="34.75" fill="#000000" font-family="Verdana" font-size="12">PLAYER</text>
	<text x="208" y="59.8" fill="#000000" font-family="Verdana" font-size="12">tag</text>
	<line x1="208" y1="62" x2="228" y2="62" stroke="#000000" stroke-width="1"/>
	<text x="208" y="76.8" fill="#000000" font-family="Verdana" font-size="12">picture</text>
</g>
</svg>